<svg width="130" height="20" viewBox="0 0 130 20" fill="none" xmlns="http://www.w3.org/2000/svg">
<rect width="1440" height="3559" transform="translate(-103 -53)" fill="#010001"/>
<path d="M33.1898 6.16663H21.5369L21.1193 6.4953V16.6653H24.3251V12.837L24.619 12.5515H33.1898C35.3572 12.5515 36.3544 11.9777 36.3544 10.5067V8.16829C36.3544 6.73776 35.3572 6.16663 33.1898 6.16663ZM33.1898 9.9248C33.1898 10.6199 32.731 10.733 31.6899 10.733H24.674L24.3388 10.4474V8.29222L24.6328 8.00665H31.7119C32.7118 8.00665 33.2118 8.12788 33.2118 8.81486V9.91672L33.1898 9.9248Z" fill="white"/>
<path d="M42.277 8.08749L45.068 12.0908L44.9004 12.4599H38.736L37.1537 14.378H46.3179L46.9826 14.7471L48.4001 16.6653H52.1059L43.9856 6.04541" fill="white"/>
<path d="M79.0543 14.6232V11.7649L79.3894 11.4793H85.595V9.68237H75.7661V16.6653H90.2595V14.8684H79.4307" fill="white"/>
<path d="M90.3858 6.16934H75.7661V8.1306H90.3858V6.16934Z" fill="white"/>
<path d="M59.4816 8.04708H71.2691C71.1015 6.57614 70.1428 6.16125 67.8106 6.16125H59.3552C56.6906 6.16125 55.8555 6.65157 55.8555 8.65323V14.2137C55.8555 16.175 56.6796 16.7057 59.3552 16.7057H67.8023C70.1758 16.7057 71.0988 16.2558 71.1757 14.7444H59.4733L59.1382 14.4185V8.29223" fill="white"/>
<path d="M13.2051 10.2508H4.66729L4.41731 9.96522V8.1683L4.66729 7.96355H16.2048L16.3697 7.59716C15.9961 6.61653 14.9549 6.12622 13.0732 6.12622H5.04089C2.37626 6.12622 1.54391 6.61653 1.54391 8.6182V9.80357C1.54391 11.7621 2.36802 12.2956 5.04089 12.2956H13.5814L13.8314 12.5407V14.4265L13.6226 14.7121H1.29393C1.29393 14.7121 1 14.8764 1 14.9168C1.20877 16.307 2.16749 16.6734 4.45852 16.6734H13.2051C15.8697 16.6734 16.746 16.183 16.746 14.1814V12.7428C16.746 10.7842 15.8697 10.2508 13.2051 10.2508Z" fill="white"/>
<path d="M99.591 6.12622H94.759L94.509 6.61653L99.841 10.4555C100.841 9.88439 101.964 9.31326 103.137 8.73943" fill="white"/>
<path d="M103.923 13.3166L108.629 16.6653H113.461L113.67 16.2154L106.673 11.191C105.755 11.8861 104.797 12.5811 103.926 13.3166" fill="white"/>
<path d="M98.8824 16.6653H94.5091L94.1355 16.0941C97.0913 13.2735 110.343 1.27697 139.118 0C139.118 0 115.002 0.808209 98.8824 16.6653" fill="#B2B0B2"/>
</svg>
